<svg width="15" height="15" viewBox="0 0 15 15" fill="none" xmlns="http://www.w3.org/2000/svg">
<path d="M2.22906 0.366928L7.475 5.61264L12.6938 0.394108C12.809 0.271415 12.9479 0.173264 13.102 0.105542C13.2562 0.0378205 13.4224 0.00192208 13.5907 0C13.9512 0 14.2969 0.143179 14.5517 0.39804C14.8066 0.6529 14.9498 0.998566 14.9498 1.35899C14.9529 1.52561 14.922 1.69111 14.8589 1.84535C14.7958 1.99959 14.7019 2.13931 14.5828 2.25593L9.29613 7.47446L14.5828 12.7609C14.8068 12.9801 14.9382 13.2768 14.9498 13.5899C14.9498 13.9504 14.8066 14.296 14.5517 14.5509C14.2969 14.8057 13.9512 14.9489 13.5907 14.9489C13.4175 14.9561 13.2447 14.9272 13.0833 14.864C12.9218 14.8009 12.7753 14.7048 12.653 14.582L7.475 9.33628L2.24266 14.5684C2.12782 14.687 1.99064 14.7817 1.83902 14.847C1.6874 14.9123 1.52435 14.947 1.35927 14.9489C0.998829 14.9489 0.653149 14.8057 0.398278 14.5509C0.143406 14.296 0.000221127 13.9504 0.000221127 13.5899C-0.00294749 13.4233 0.0279667 13.2578 0.0910668 13.1036C0.154167 12.9493 0.248122 12.8096 0.367165 12.693L5.65387 7.47446L0.367165 2.18798C0.143173 1.96885 0.0118269 1.67212 0.000221127 1.35899C0.000221127 0.998566 0.143406 0.6529 0.398278 0.39804C0.653149 0.143179 0.998829 0 1.35927 0C1.68544 0.00407698 1.99803 0.135899 2.22906 0.366928Z" fill="#F11111"/>
</svg>
