<svg width="15" height="15" viewBox="0 0 15 15" fill="none" xmlns="http://www.w3.org/2000/svg">
<path d="M13.7699 0.290028C13.5064 0.143133 13.2166 0.0497162 12.917 0.0151211C12.6174 -0.0194739 12.314 0.00543091 12.024 0.0884117C11.7341 0.171393 11.4633 0.310822 11.2271 0.498725C10.991 0.686628 10.7942 0.919321 10.6479 1.18349L6.38599 8.86707L3.94687 6.42355C3.73511 6.2039 3.48179 6.0287 3.20172 5.90817C2.92164 5.78764 2.6204 5.7242 2.31559 5.72154C2.01078 5.71889 1.70849 5.77708 1.42636 5.89271C1.14424 6.00835 0.887922 6.17911 0.672378 6.39505C0.456834 6.61098 0.286376 6.86775 0.170949 7.15039C0.0555217 7.43302 -0.00256207 7.73586 8.66759e-05 8.04122C0.00273543 8.34659 0.0660637 8.64836 0.186376 8.92895C0.306688 9.20953 0.481575 9.4633 0.700833 9.67545L5.29212 14.275C5.726 14.7108 6.31138 14.95 6.91514 14.95L7.23308 14.927C7.58495 14.8777 7.92059 14.7472 8.21358 14.5459C8.50657 14.3446 8.74891 14.0779 8.92153 13.7668L14.6606 3.41773C14.8072 3.15378 14.9004 2.86349 14.9349 2.56346C14.9694 2.26342 14.9446 1.9595 14.8619 1.66907C14.7792 1.37863 14.6402 1.10736 14.4528 0.870741C14.2655 0.634125 14.0334 0.436798 13.7699 0.290028Z" fill="#EEF316"/>
</svg>
